<svg xmlns="http://www.w3.org/2000/svg" viewBox="0 0 1020 440" width="100%" height="100%">
  <defs>
    <linearGradient id="l5-bg" x1="0%" y1="0%" x2="100%" y2="100%">
      <stop offset="0%" stop-color="#050816">
        <animate attributeName="stop-color" values="#050816; #070B1F; #0A1028; #050816" dur="12s" repeatCount="indefinite" />
      </stop>
      <stop offset="50%" stop-color="#070B1F">
        <animate attributeName="stop-color" values="#070B1F; #0E122C; #06152B; #070B1F" dur="12s" repeatCount="indefinite" />
      </stop>
      <stop offset="100%" stop-color="#0A1028">
        <animate attributeName="stop-color" values="#0A1028; #050816; #070B1F; #0A1028" dur="12s" repeatCount="indefinite" />
      </stop>
    </linearGradient>

    <linearGradient id="l5-border" x1="0%" y1="0%" x2="100%" y2="0%">
      <stop offset="0%" stop-color="#00F2FE" />
      <stop offset="25%" stop-color="#34D399" />
      <stop offset="50%" stop-color="#F59E0B" />
      <stop offset="75%" stop-color="#818CF8" />
      <stop offset="100%" stop-color="#C084FC" />
    </linearGradient>

    <filter id="l5-glow" x="-20%" y="-20%" width="140%" height="140%">
      <feGaussianBlur stdDeviation="2.5" result="blur" />
      <feComposite in="SourceGraphic" in2="blur" operator="over" />
    </filter>
  </defs>

  <!-- Shell Frame -->
  <rect width="1020" height="440" rx="16" fill="url(#l5-bg)" stroke="#1E293B" stroke-width="1.8" />
  <rect x="0" y="0" width="1020" height="3.5" rx="1.75" fill="url(#l5-border)" filter="url(#l5-glow)" />

  <!-- Top Bar -->
  <g transform="translate(28, 22)">
    <text x="0" y="12" fill="#00F2FE" font-family="'Fira Code', monospace" font-size="12.5" font-weight="800" letter-spacing="1">INTELLIGENCE LAB // ALL FEATURED SYSTEMS</text>
    <text x="964" y="12" fill="#34D399" font-family="'Fira Code', monospace" font-size="10.5" font-weight="800" text-anchor="end">5 ACTIVE SYSTEMS &#9679;</text>
  </g>
  <line x1="26" y1="42" x2="994" y2="42" stroke="#1E293B" stroke-width="1.2" />

  <!-- 5 VERTICAL CARDS (Card Width: 180px, Gap: 15px) -->

  <!-- CARD 01: BioWeaver (Cyan Glow) -->
  <g transform="translate(26, 56)">
    <rect width="180" height="365" rx="12" fill="#0D1117" stroke="#00F2FE" stroke-width="1.2" filter="url(#l5-glow)" />
    
    <!-- Top Tags -->
    <text x="14" y="24" fill="#00F2FE" font-family="'Fira Code', monospace" font-size="10.5" font-weight="800">01</text>
    <a href="https://github.com/Kathyayini26/bioweaver" target="_blank">
      <text x="166" y="24" fill="#00F2FE" font-family="'Fira Code', monospace" font-size="11" text-anchor="end">&#8599;</text>
    </a>

    <!-- Holographic Orbit & DNA Helix -->
    <g transform="translate(90, 75)">
      <circle cx="0" cy="0" r="30" fill="#00F2FE" opacity="0.08">
        <animate attributeName="r" values="28;34;28" dur="3s" repeatCount="indefinite" />
      </circle>
      <ellipse cx="0" cy="18" rx="34" ry="9" fill="none" stroke="#00F2FE" stroke-width="1" stroke-dasharray="3 3" opacity="0.6">
        <animateTransform attributeName="transform" type="rotate" from="0" to="360" dur="8s" repeatCount="indefinite" />
      </ellipse>
      <circle cx="0" cy="0" r="24" fill="#161B22" stroke="#00F2FE" stroke-width="1.5" />
      
      <!-- Realistic Animated DNA Strand -->
      <g>
        <path d="M -9 -11 C -2 -5 2 5 9 11" stroke="#00F2FE" stroke-width="2" fill="none" />
        <path d="M 9 -11 C 2 -5 -2 5 -9 11" stroke="#38BDF8" stroke-width="2" fill="none" />
        <line x1="-6" y1="-7" x2="6" y2="-7" stroke="#34D399" stroke-width="1" />
        <line x1="-3" y1="-2" x2="3" y2="-2" stroke="#818CF8" stroke-width="1" />
        <line x1="-3" y1="2" x2="3" y2="2" stroke="#F59E0B" stroke-width="1" />
        <line x1="-6" y1="7" x2="6" y2="7" stroke="#34D399" stroke-width="1" />
        <animateTransform attributeName="transform" type="rotate" from="0" to="360" dur="6s" repeatCount="indefinite" />
      </g>
    </g>

    <!-- Content -->
    <text x="90" y="136" fill="#FFFFFF" font-family="'Fira Code', monospace" font-size="13.5" font-weight="800" text-anchor="middle">BioWeaver</text>
    <text x="90" y="152" fill="#38BDF8" font-family="'Fira Code', monospace" font-size="8" font-weight="700" text-anchor="middle">Biomedical AI &amp; Discovery</text>

    <text x="90" y="174" fill="#94A3B8" font-family="-apple-system, sans-serif" font-size="9" text-anchor="middle">Predicts gene-disease</text>
    <text x="90" y="188" fill="#94A3B8" font-family="-apple-system, sans-serif" font-size="9" text-anchor="middle">interactions with explainable</text>
    <text x="90" y="202" fill="#94A3B8" font-family="-apple-system, sans-serif" font-size="9" text-anchor="middle">research hypotheses.</text>

    <!-- Tech Stack -->
    <text x="90" y="228" fill="#64748B" font-family="'Fira Code', monospace" font-size="7" font-weight="800" letter-spacing="0.5" text-anchor="middle">TECH STACK</text>
    <g transform="translate(10, 238)" font-family="'Fira Code', monospace" font-size="7.5">
      <rect width="46" height="17" rx="3" fill="#161B22" stroke="#334155" />
      <text x="23" y="11.5" fill="#38BDF8" text-anchor="middle">Python</text>
      <rect x="52" width="44" height="17" rx="3" fill="#161B22" stroke="#334155" />
      <text x="74" y="11.5" fill="#38BDF8" text-anchor="middle">Flask</text>
      <rect x="102" width="56" height="17" rx="3" fill="#161B22" stroke="#334155" />
      <text x="130" y="11.5" fill="#38BDF8" text-anchor="middle">React</text>
      <rect y="22" width="160" height="17" rx="3" fill="#161B22" stroke="#00F2FE" stroke-width="0.8" />
      <text x="80" y="33.5" fill="#00F2FE" font-weight="700" text-anchor="middle">Scikit-Learn</text>
    </g>

    <!-- View Repo Button -->
    <a href="https://github.com/Kathyayini26/bioweaver" target="_blank">
      <g transform="translate(10, 318)">
        <rect width="160" height="28" rx="6" fill="#082F49" stroke="#00F2FE" stroke-width="1.2" />
        <path d="M 28 14 C 23.6 14 20 17.6 20 22 C 20 25.5 22.3 28.5 25.5 29.6 C 25.9 29.7 26 29.4 26 29.2 L 26 27.8 C 23.8 28.2 23.3 26.7 23.3 26.7 C 23 25.8 22.4 25.5 22.4 25.5 C 21.7 25 22.5 25 22.5 25 C 23.3 25.1 23.7 25.8 23.7 25.8 C 24.4 27 25.6 26.6 26 26.4 C 26.1 25.9 26.3 25.5 26.5 25.3 C 24.8 25.1 23 24.4 23 21.5 C 23 20.6 23.3 19.9 23.8 19.4 C 23.7 19.2 23.4 18.4 23.9 17.3 C 23.9 17.3 24.6 17.1 26 18.1 C 26.6 17.9 27.2 17.8 27.8 17.8 C 28.4 17.8 29 17.9 29.6 18.1 C 31 17.1 31.7 17.3 31.7 17.3 C 32.2 18.4 31.9 19.2 31.8 19.4 C 32.3 19.9 32.6 20.6 32.6 21.5 C 32.6 24.4 30.8 25.1 29 25.3 C 29.3 25.6 29.6 26.1 29.6 26.8 L 29.6 29.2 C 29.6 29.4 29.7 29.7 30.1 29.6 C 33.3 28.5 35.6 25.5 35.6 22 C 35.6 17.6 32 14 27.6 14 Z" fill="#00F2FE" transform="scale(0.8) translate(5, -4)" />
        <text x="88" y="18" fill="#00F2FE" font-family="'Fira Code', monospace" font-size="8.5" font-weight="800" text-anchor="middle">VIEW REPOSITORY</text>
      </g>
    </a>
  </g>

  <!-- Connecting Chevron 1 -->
  <text x="216" y="240" fill="#00F2FE" font-size="14" font-weight="800" opacity="0.6">&#8250;</text>

  <!-- CARD 02: Maritime Risk AI (Green Glow) -->
  <g transform="translate(225, 56)">
    <rect width="180" height="365" rx="12" fill="#0D1117" stroke="#34D399" stroke-width="1.2" filter="url(#l5-glow)" />
    
    <!-- Top Tags -->
    <text x="14" y="24" fill="#34D399" font-family="'Fira Code', monospace" font-size="10.5" font-weight="800">02</text>
    <a href="https://github.com/Kathyayini26" target="_blank">
      <text x="166" y="24" fill="#34D399" font-family="'Fira Code', monospace" font-size="11" text-anchor="end">&#8599;</text>
    </a>

    <!-- Holographic Orbit & Vessel Ship -->
    <g transform="translate(90, 75)">
      <circle cx="0" cy="0" r="30" fill="#34D399" opacity="0.08">
        <animate attributeName="r" values="28;34;28" dur="3s" repeatCount="indefinite" />
      </circle>
      <ellipse cx="0" cy="18" rx="34" ry="9" fill="none" stroke="#34D399" stroke-width="1" stroke-dasharray="3 3" opacity="0.6">
        <animateTransform attributeName="transform" type="rotate" from="0" to="360" dur="8s" repeatCount="indefinite" />
      </ellipse>
      <circle cx="0" cy="0" r="24" fill="#161B22" stroke="#34D399" stroke-width="1.5" />
      
      <!-- Realistic Cargo Ship -->
      <g>
        <path d="M -14 7 Q -7 3 0 7 Q 7 11 14 7" stroke="#38BDF8" stroke-width="1.2" fill="none" />
        <polygon points="-11,4 11,4 8,1 -8,1" fill="#34D399" />
        <rect x="-3" y="-4" width="6" height="5" fill="#10B981" />
        <rect x="0" y="-7" width="2.5" height="3" fill="#6EE7B7" />
        <animate attributeName="transform" type="translate" values="-2,0; 2,0; -2,0" dur="3s" repeatCount="indefinite" />
      </g>
    </g>

    <!-- Content -->
    <text x="90" y="136" fill="#FFFFFF" font-family="'Fira Code', monospace" font-size="13" font-weight="800" text-anchor="middle">Maritime Risk AI</text>
    <text x="90" y="152" fill="#34D399" font-family="'Fira Code', monospace" font-size="8" font-weight="700" text-anchor="middle">Predictive Supply Chain</text>

    <text x="90" y="174" fill="#94A3B8" font-family="-apple-system, sans-serif" font-size="9" text-anchor="middle">Forecasts vessel route risks,</text>
    <text x="90" y="188" fill="#94A3B8" font-family="-apple-system, sans-serif" font-size="9" text-anchor="middle">disruptions, and port</text>
    <text x="90" y="202" fill="#94A3B8" font-family="-apple-system, sans-serif" font-size="9" text-anchor="middle">congestion queues.</text>

    <!-- Tech Stack -->
    <text x="90" y="228" fill="#64748B" font-family="'Fira Code', monospace" font-size="7" font-weight="800" letter-spacing="0.5" text-anchor="middle">TECH STACK</text>
    <g transform="translate(10, 238)" font-family="'Fira Code', monospace" font-size="7.5">
      <rect width="46" height="17" rx="3" fill="#161B22" stroke="#334155" />
      <text x="23" y="11.5" fill="#34D399" text-anchor="middle">Python</text>
      <rect x="52" width="44" height="17" rx="3" fill="#161B22" stroke="#334155" />
      <text x="74" y="11.5" fill="#34D399" text-anchor="middle">Flask</text>
      <rect x="102" width="56" height="17" rx="3" fill="#161B22" stroke="#334155" />
      <text x="130" y="11.5" fill="#34D399" text-anchor="middle">React</text>
      <rect y="22" width="160" height="17" rx="3" fill="#161B22" stroke="#34D399" stroke-width="0.8" />
      <text x="80" y="33.5" fill="#34D399" font-weight="700" text-anchor="middle">Predictive ML</text>
    </g>

    <!-- View Repo Button -->
    <a href="https://github.com/Kathyayini26" target="_blank">
      <g transform="translate(10, 318)">
        <rect width="160" height="28" rx="6" fill="#064E3B" stroke="#34D399" stroke-width="1.2" />
        <text x="80" y="18" fill="#34D399" font-family="'Fira Code', monospace" font-size="8.5" font-weight="800" text-anchor="middle">&#128279; VIEW REPOSITORY</text>
      </g>
    </a>
  </g>

  <!-- Connecting Chevron 2 -->
  <text x="415" y="240" fill="#34D399" font-size="14" font-weight="800" opacity="0.6">&#8250;</text>

  <!-- CARD 03: RoadWatch (Amber Glow) -->
  <g transform="translate(424, 56)">
    <rect width="180" height="365" rx="12" fill="#0D1117" stroke="#F59E0B" stroke-width="1.2" filter="url(#l5-glow)" />
    
    <!-- Top Tags -->
    <text x="14" y="24" fill="#F59E0B" font-family="'Fira Code', monospace" font-size="10.5" font-weight="800">03</text>
    <a href="https://github.com/Kathyayini26" target="_blank">
      <text x="166" y="24" fill="#F59E0B" font-family="'Fira Code', monospace" font-size="11" text-anchor="end">&#8599;</text>
    </a>

    <!-- Holographic Orbit & Road with Warning Triangles -->
    <g transform="translate(90, 75)">
      <circle cx="0" cy="0" r="30" fill="#F59E0B" opacity="0.08">
        <animate attributeName="r" values="28;34;28" dur="3s" repeatCount="indefinite" />
      </circle>
      <ellipse cx="0" cy="18" rx="34" ry="9" fill="none" stroke="#F59E0B" stroke-width="1" stroke-dasharray="3 3" opacity="0.6">
        <animateTransform attributeName="transform" type="rotate" from="0" to="360" dur="8s" repeatCount="indefinite" />
      </ellipse>
      <circle cx="0" cy="0" r="24" fill="#161B22" stroke="#F59E0B" stroke-width="1.5" />
      
      <!-- Perspective Roadway -->
      <g stroke="#F59E0B" stroke-width="1.5" fill="none">
        <path d="M -9 10 L -3 -10 M 9 10 L 3 -10" />
        <line x1="0" y1="-6" x2="0" y2="-1" stroke="#FDE68A" stroke-width="1.2" />
        <line x1="0" y1="2" x2="0" y2="7" stroke="#FDE68A" stroke-width="1.2" />
      </g>
      <!-- Small Warning Triangle -->
      <polygon points="12,-4 18,6 6,6" fill="none" stroke="#EF4444" stroke-width="1" />
      <circle cx="12" cy="4" r="0.8" fill="#EF4444" />
    </g>

    <!-- Content -->
    <text x="90" y="136" fill="#FFFFFF" font-family="'Fira Code', monospace" font-size="13.5" font-weight="800" text-anchor="middle">RoadWatch</text>
    <text x="90" y="152" fill="#F59E0B" font-family="'Fira Code', monospace" font-size="8" font-weight="700" text-anchor="middle">Infrastructure Risk Intel</text>

    <text x="90" y="174" fill="#94A3B8" font-family="-apple-system, sans-serif" font-size="9" text-anchor="middle">Geospatial road hazard</text>
    <text x="90" y="188" fill="#94A3B8" font-family="-apple-system, sans-serif" font-size="9" text-anchor="middle">telemetry, anomaly detection,</text>
    <text x="90" y="202" fill="#94A3B8" font-family="-apple-system, sans-serif" font-size="9" text-anchor="middle">and safety analytics.</text>

    <!-- Tech Stack -->
    <text x="90" y="228" fill="#64748B" font-family="'Fira Code', monospace" font-size="7" font-weight="800" letter-spacing="0.5" text-anchor="middle">TECH STACK</text>
    <g transform="translate(10, 238)" font-family="'Fira Code', monospace" font-size="7.5">
      <rect width="46" height="17" rx="3" fill="#161B22" stroke="#334155" />
      <text x="23" y="11.5" fill="#F59E0B" text-anchor="middle">Python</text>
      <rect x="52" width="106" height="17" rx="3" fill="#161B22" stroke="#334155" />
      <text x="105" y="11.5" fill="#F59E0B" text-anchor="middle">GIS Analytics</text>
      <rect y="22" width="80" height="17" rx="3" fill="#161B22" stroke="#F59E0B" stroke-width="0.8" />
      <text x="40" y="33.5" fill="#F59E0B" font-weight="700" text-anchor="middle">Data Science</text>
      <rect x="86" y="22" width="72" height="17" rx="3" fill="#161B22" stroke="#334155" />
      <text x="122" y="33.5" fill="#F59E0B" text-anchor="middle">Pandas</text>
    </g>

    <!-- View Repo Button -->
    <a href="https://github.com/Kathyayini26" target="_blank">
      <g transform="translate(10, 318)">
        <rect width="160" height="28" rx="6" fill="#451A03" stroke="#F59E0B" stroke-width="1.2" />
        <text x="80" y="18" fill="#F59E0B" font-family="'Fira Code', monospace" font-size="8.5" font-weight="800" text-anchor="middle">&#128279; VIEW REPOSITORY</text>
      </g>
    </a>
  </g>

  <!-- Connecting Chevron 3 -->
  <text x="614" y="240" fill="#F59E0B" font-size="14" font-weight="800" opacity="0.6">&#8250;</text>

  <!-- CARD 04: Smart Attendance & TT (Violet Glow) -->
  <g transform="translate(623, 56)">
    <rect width="180" height="365" rx="12" fill="#0D1117" stroke="#818CF8" stroke-width="1.2" filter="url(#l5-glow)" />
    
    <!-- Top Tags -->
    <text x="14" y="24" fill="#818CF8" font-family="'Fira Code', monospace" font-size="10.5" font-weight="800">04</text>
    <a href="https://github.com/Kathyayini26" target="_blank">
      <text x="166" y="24" fill="#818CF8" font-family="'Fira Code', monospace" font-size="11" text-anchor="end">&#8599;</text>
    </a>

    <!-- Holographic Orbit & Calendar Checkmark Scanner -->
    <g transform="translate(90, 75)">
      <circle cx="0" cy="0" r="30" fill="#818CF8" opacity="0.08">
        <animate attributeName="r" values="28;34;28" dur="3s" repeatCount="indefinite" />
      </circle>
      <ellipse cx="0" cy="18" rx="34" ry="9" fill="none" stroke="#818CF8" stroke-width="1" stroke-dasharray="3 3" opacity="0.6">
        <animateTransform attributeName="transform" type="rotate" from="0" to="360" dur="8s" repeatCount="indefinite" />
      </ellipse>
      <circle cx="0" cy="0" r="24" fill="#161B22" stroke="#818CF8" stroke-width="1.5" />
      
      <!-- Calendar Icon with Checkmark -->
      <g transform="translate(-10, -10)">
        <rect width="20" height="18" rx="3" fill="none" stroke="#818CF8" stroke-width="1.4" />
        <line x1="0" y1="5" x2="20" y2="5" stroke="#818CF8" stroke-width="1" />
        <circle cx="10" cy="11" r="5.5" fill="#312E81" stroke="#34D399" stroke-width="1" />
        <path d="M 8 11 L 9.5 12.5 L 12.5 9.5" stroke="#34D399" stroke-width="1.2" fill="none" />
      </g>
    </g>

    <!-- Content -->
    <text x="90" y="136" fill="#FFFFFF" font-family="'Fira Code', monospace" font-size="12.5" font-weight="800" text-anchor="middle">Smart Attendance</text>
    <text x="90" y="152" fill="#818CF8" font-family="'Fira Code', monospace" font-size="8" font-weight="700" text-anchor="middle">CV + Scheduling Solver</text>

    <text x="90" y="174" fill="#94A3B8" font-family="-apple-system, sans-serif" font-size="9" text-anchor="middle">Automated attendance</text>
    <text x="90" y="188" fill="#94A3B8" font-family="-apple-system, sans-serif" font-size="9" text-anchor="middle">pipeline paired with</text>
    <text x="90" y="202" fill="#94A3B8" font-family="-apple-system, sans-serif" font-size="9" text-anchor="middle">constraint scheduling solver.</text>

    <!-- Tech Stack -->
    <text x="90" y="228" fill="#64748B" font-family="'Fira Code', monospace" font-size="7" font-weight="800" letter-spacing="0.5" text-anchor="middle">TECH STACK</text>
    <g transform="translate(10, 238)" font-family="'Fira Code', monospace" font-size="7.5">
      <rect width="44" height="17" rx="3" fill="#161B22" stroke="#334155" />
      <text x="22" y="11.5" fill="#818CF8" text-anchor="middle">Python</text>
      <rect x="50" width="50" height="17" rx="3" fill="#161B22" stroke="#334155" />
      <text x="75" y="11.5" fill="#818CF8" text-anchor="middle">OpenCV</text>
      <rect x="106" width="52" height="17" rx="3" fill="#161B22" stroke="#334155" />
      <text x="132" y="11.5" fill="#818CF8" text-anchor="middle">Flask</text>
      <rect y="22" width="160" height="17" rx="3" fill="#161B22" stroke="#818CF8" stroke-width="0.8" />
      <text x="80" y="33.5" fill="#818CF8" font-weight="700" text-anchor="middle">Constraint Solver</text>
    </g>

    <!-- View Repo Button -->
    <a href="https://github.com/Kathyayini26" target="_blank">
      <g transform="translate(10, 318)">
        <rect width="160" height="28" rx="6" fill="#1E1B4B" stroke="#818CF8" stroke-width="1.2" />
        <text x="80" y="18" fill="#818CF8" font-family="'Fira Code', monospace" font-size="8.5" font-weight="800" text-anchor="middle">&#128279; VIEW REPOSITORY</text>
      </g>
    </a>
  </g>

  <!-- Connecting Chevron 4 -->
  <text x="813" y="240" fill="#818CF8" font-size="14" font-weight="800" opacity="0.6">&#8250;</text>

  <!-- CARD 05: SmartCane (Purple Glow) -->
  <g transform="translate(822, 56)">
    <rect width="172" height="365" rx="12" fill="#0D1117" stroke="#C084FC" stroke-width="1.2" filter="url(#l5-glow)" />
    
    <!-- Top Tags -->
    <text x="14" y="24" fill="#C084FC" font-family="'Fira Code', monospace" font-size="10.5" font-weight="800">05</text>
    <a href="https://github.com/Kathyayini26" target="_blank">
      <text x="158" y="24" fill="#C084FC" font-family="'Fira Code', monospace" font-size="11" text-anchor="end">&#8599;</text>
    </a>

    <!-- Holographic Orbit & Smart Cane with Radar Pulse -->
    <g transform="translate(86, 75)">
      <circle cx="0" cy="0" r="30" fill="#C084FC" opacity="0.08">
        <animate attributeName="r" values="28;34;28" dur="3s" repeatCount="indefinite" />
      </circle>
      <ellipse cx="0" cy="18" rx="34" ry="9" fill="none" stroke="#C084FC" stroke-width="1" stroke-dasharray="3 3" opacity="0.6">
        <animateTransform attributeName="transform" type="rotate" from="0" to="360" dur="8s" repeatCount="indefinite" />
      </ellipse>
      <circle cx="0" cy="0" r="24" fill="#161B22" stroke="#C084FC" stroke-width="1.5" />

      <!-- Smart Cane with Echo Pulse -->
      <path d="M 5 -11 C 5 -16 -4 -16 -4 -11 L -4 13" stroke="#C084FC" stroke-width="2.4" stroke-linecap="round" fill="none" />
      <circle cx="-4" cy="14" r="1.8" fill="#38BDF8" />
      <circle cx="-4" cy="14" r="6" fill="none" stroke="#34D399" stroke-width="0.8">
        <animate attributeName="r" values="3;9;3" dur="1.8s" repeatCount="indefinite" />
        <animate attributeName="opacity" values="1;0.2;1" dur="1.8s" repeatCount="indefinite" />
      </circle>
    </g>

    <!-- Content -->
    <text x="86" y="136" fill="#FFFFFF" font-family="'Fira Code', monospace" font-size="13.5" font-weight="800" text-anchor="middle">SmartCane</text>
    <text x="86" y="152" fill="#C084FC" font-family="'Fira Code', monospace" font-size="8" font-weight="700" text-anchor="middle">Assistive IoT Navigation</text>

    <text x="86" y="174" fill="#94A3B8" font-family="-apple-system, sans-serif" font-size="9" text-anchor="middle">Intelligent multi-sensor</text>
    <text x="86" y="188" fill="#94A3B8" font-family="-apple-system, sans-serif" font-size="9" text-anchor="middle">spatial mapping and adaptive</text>
    <text x="86" y="202" fill="#94A3B8" font-family="-apple-system, sans-serif" font-size="9" text-anchor="middle">haptic obstacle alerts.</text>

    <!-- Tech Stack -->
    <text x="86" y="228" fill="#64748B" font-family="'Fira Code', monospace" font-size="7" font-weight="800" letter-spacing="0.5" text-anchor="middle">TECH STACK</text>
    <g transform="translate(8, 238)" font-family="'Fira Code', monospace" font-size="7.5">
      <rect width="32" height="17" rx="3" fill="#161B22" stroke="#334155" />
      <text x="16" y="11.5" fill="#C084FC" text-anchor="middle">C</text>
      <rect x="38" width="118" height="17" rx="3" fill="#161B22" stroke="#334155" />
      <text x="97" y="11.5" fill="#C084FC" text-anchor="middle">IoT Sensors</text>
      <rect y="22" width="156" height="17" rx="3" fill="#161B22" stroke="#C084FC" stroke-width="0.8" />
      <text x="78" y="33.5" fill="#C084FC" font-weight="700" text-anchor="middle">Embedded Firmware</text>
    </g>

    <!-- View Repo Button -->
    <a href="https://github.com/Kathyayini26" target="_blank">
      <g transform="translate(8, 318)">
        <rect width="156" height="28" rx="6" fill="#2E1065" stroke="#C084FC" stroke-width="1.2" />
        <text x="78" y="18" fill="#C084FC" font-family="'Fira Code', monospace" font-size="8.5" font-weight="800" text-anchor="middle">&#128279; VIEW REPOSITORY</text>
      </g>
    </a>
  </g>
</svg>